<svg width="151" height="85" viewBox="0 0 151 85" fill="none" xmlns="http://www.w3.org/2000/svg">
<path d="M10.9773 56.1466V71.0785H2.64205V36.1694H10.7045V49.7035H10.9943C11.5852 48.0898 12.5511 46.8285 13.892 45.9194C15.2443 45.0103 16.8977 44.5557 18.8523 44.5557C20.6932 44.5557 22.2955 44.9648 23.6591 45.783C25.0227 46.5898 26.0795 47.7319 26.8295 49.2091C27.5909 50.6864 27.9659 52.4137 27.9545 54.391V71.0785H19.6193V56.0273C19.6307 54.5728 19.267 53.4364 18.5284 52.6182C17.7898 51.8001 16.75 51.391 15.4091 51.391C14.5341 51.391 13.7614 51.5841 13.0909 51.9705C12.4318 52.3455 11.9148 52.8853 11.5398 53.5898C11.1761 54.2944 10.9886 55.1466 10.9773 56.1466ZM40.5384 71.5216C38.8679 71.5216 37.3849 71.2432 36.0895 70.6864C34.8054 70.1182 33.7884 69.266 33.0384 68.1296C32.2997 66.9819 31.9304 65.5444 31.9304 63.8171C31.9304 62.3626 32.1861 61.1353 32.6974 60.1353C33.2088 59.1353 33.9134 58.3228 34.8111 57.6978C35.7088 57.0728 36.7429 56.6012 37.9134 56.283C39.0838 55.9535 40.3338 55.7319 41.6634 55.6182C43.152 55.4819 44.3509 55.3398 45.2599 55.1921C46.169 55.033 46.8281 54.8114 47.2372 54.5273C47.6577 54.2319 47.8679 53.8171 47.8679 53.283V53.1978C47.8679 52.3228 47.5668 51.6466 46.9645 51.1694C46.3622 50.6921 45.5497 50.4535 44.527 50.4535C43.4247 50.4535 42.5384 50.6921 41.8679 51.1694C41.1974 51.6466 40.7713 52.3057 40.5895 53.1466L32.902 52.8739C33.1293 51.283 33.7145 49.8626 34.6577 48.6126C35.6122 47.3512 36.919 46.3626 38.5781 45.6466C40.2486 44.9194 42.2543 44.5557 44.5952 44.5557C46.2656 44.5557 47.8054 44.7546 49.2145 45.1523C50.6236 45.5387 51.8509 46.1069 52.8963 46.8569C53.9418 47.5955 54.7486 48.5046 55.3168 49.5841C55.8963 50.6637 56.1861 51.8966 56.1861 53.283V71.0785H48.3452V67.4307H48.1406C47.6747 68.3171 47.0781 69.0671 46.3509 69.6807C45.6349 70.2944 44.7884 70.7546 43.8111 71.0614C42.8452 71.3682 41.7543 71.5216 40.5384 71.5216ZM43.1122 66.0671C44.0099 66.0671 44.8168 65.8853 45.5327 65.5216C46.2599 65.158 46.8395 64.658 47.2713 64.0216C47.7031 63.3739 47.919 62.6239 47.919 61.7716V59.283C47.6804 59.408 47.3906 59.5216 47.0497 59.6239C46.7202 59.7262 46.3565 59.8228 45.9588 59.9137C45.5611 60.0046 45.152 60.0841 44.7315 60.1523C44.3111 60.2205 43.9077 60.283 43.5213 60.3398C42.7372 60.4648 42.0668 60.658 41.5099 60.9194C40.9645 61.1807 40.544 61.5216 40.2486 61.9421C39.9645 62.3512 39.8224 62.8398 39.8224 63.408C39.8224 64.2716 40.1293 64.9307 40.7429 65.3853C41.3679 65.8398 42.1577 66.0671 43.1122 66.0671ZM61.2827 71.0785V36.1694H69.6179V49.3796H69.7884C70.1293 48.5841 70.6122 47.8171 71.2372 47.0785C71.8736 46.3398 72.6804 45.7376 73.6577 45.2716C74.6463 44.7944 75.8281 44.5557 77.2031 44.5557C79.0213 44.5557 80.7202 45.033 82.2997 45.9875C83.8906 46.9421 85.1747 48.4137 86.152 50.4023C87.1293 52.391 87.6179 54.9251 87.6179 58.0046C87.6179 60.9705 87.1463 63.4535 86.2031 65.4535C85.2713 67.4535 84.0099 68.9535 82.419 69.9535C80.8395 70.9535 79.0838 71.4535 77.152 71.4535C75.8338 71.4535 74.6918 71.2376 73.7259 70.8057C72.7599 70.3739 71.9474 69.8057 71.2884 69.1012C70.6406 68.3966 70.1406 67.641 69.7884 66.8341H69.5327V71.0785H61.2827ZM69.4474 57.9876C69.4474 59.3966 69.6349 60.6239 70.0099 61.6694C70.3963 62.7148 70.9474 63.5273 71.6634 64.1069C72.3906 64.6751 73.2599 64.9591 74.2713 64.9591C75.294 64.9591 76.1634 64.6751 76.8793 64.1069C77.5952 63.5273 78.1349 62.7148 78.4986 61.6694C78.8736 60.6239 79.0611 59.3966 79.0611 57.9876C79.0611 56.5785 78.8736 55.3569 78.4986 54.3228C78.1349 53.2887 77.5952 52.4876 76.8793 51.9194C76.1747 51.3512 75.3054 51.0671 74.2713 51.0671C73.2486 51.0671 72.3793 51.3455 71.6634 51.9023C70.9474 52.4591 70.3963 53.2546 70.0099 54.2887C69.6349 55.3228 69.4474 56.5557 69.4474 57.9876ZM91.9858 71.0785V44.8966H100.321V71.0785H91.9858ZM96.1619 41.8455C94.9915 41.8455 93.9858 41.4591 93.1449 40.6864C92.304 39.9023 91.8835 38.9591 91.8835 37.8569C91.8835 36.766 92.304 35.8341 93.1449 35.0614C93.9858 34.2773 94.9915 33.8853 96.1619 33.8853C97.3438 33.8853 98.3494 34.2773 99.179 35.0614C100.02 35.8341 100.44 36.766 100.44 37.8569C100.44 38.9591 100.02 39.9023 99.179 40.6864C98.3494 41.4591 97.3438 41.8455 96.1619 41.8455ZM120.405 44.8966V51.033H103.888V44.8966H120.405ZM107.348 38.6239H115.683V62.8455C115.683 63.3569 115.763 63.7716 115.922 64.0898C116.092 64.3966 116.337 64.6182 116.655 64.7546C116.973 64.8796 117.354 64.9421 117.797 64.9421C118.115 64.9421 118.45 64.9137 118.803 64.8569C119.166 64.7887 119.439 64.7319 119.621 64.6864L120.882 70.7035C120.484 70.8171 119.922 70.9591 119.195 71.1296C118.479 71.3001 117.621 71.408 116.621 71.4535C114.666 71.5444 112.99 71.3171 111.592 70.7716C110.206 70.2148 109.143 69.3512 108.405 68.1807C107.678 67.0103 107.325 65.5387 107.348 63.766V38.6239ZM147.188 52.891L139.534 53.0955C139.455 52.5501 139.239 52.0671 138.886 51.6466C138.534 51.2148 138.074 50.8796 137.506 50.641C136.949 50.391 136.301 50.266 135.562 50.266C134.597 50.266 133.773 50.4591 133.091 50.8455C132.42 51.2319 132.091 51.7546 132.102 52.4137C132.091 52.9251 132.295 53.3682 132.716 53.7432C133.148 54.1182 133.915 54.4194 135.017 54.6466L140.062 55.6012C142.676 56.1012 144.619 56.9307 145.892 58.0898C147.176 59.2489 147.824 60.783 147.835 62.6921C147.824 64.4876 147.29 66.0501 146.233 67.3796C145.188 68.7091 143.756 69.7432 141.938 70.4819C140.119 71.2091 138.04 71.5728 135.699 71.5728C131.96 71.5728 129.011 70.8057 126.852 69.2716C124.705 67.7262 123.477 65.658 123.17 63.0671L131.403 62.8626C131.585 63.8171 132.057 64.5444 132.818 65.0444C133.58 65.5444 134.551 65.7944 135.733 65.7944C136.801 65.7944 137.67 65.5955 138.341 65.1978C139.011 64.8001 139.352 64.2716 139.364 63.6126C139.352 63.0216 139.091 62.5501 138.58 62.1978C138.068 61.8341 137.267 61.5501 136.176 61.3455L131.608 60.4762C128.983 59.9989 127.028 59.1182 125.744 57.8341C124.46 56.5387 123.824 54.891 123.835 52.891C123.824 51.141 124.29 49.6466 125.233 48.408C126.176 47.158 127.517 46.2035 129.256 45.5444C130.994 44.8853 133.045 44.5557 135.409 44.5557C138.955 44.5557 141.75 45.3001 143.795 46.7887C145.841 48.266 146.972 50.3001 147.188 52.891Z" fill="white"/>
<rect x="0.5" y="0.578461" width="15" height="15" rx="3.5" fill="#18181B" stroke="#27272A"/>
<rect x="20.5" y="0.578461" width="15" height="15" rx="3.5" fill="#4C1D95" stroke="#6D28D9"/>
<rect x="40.5" y="0.578461" width="15" height="15" rx="3.5" fill="#5B21B6" stroke="#7C3AED"/>
<rect x="60.5" y="0.578461" width="15" height="15" rx="3.5" fill="#6D28D9" stroke="#8B5CF6"/>
<rect x="80.5" y="0.578461" width="15" height="15" rx="3.5" fill="#7C3AED" stroke="#A78BFA"/>
<rect x="100.5" y="0.578461" width="15" height="15" rx="3.5" fill="#8B5CF6" stroke="#C4B5FD"/>
</svg>
